PathFileType	4	(X/Y/Z)	C:\Users\italobelli\Desktop\GitHub\PTbot_officialCBL\Personal_Results\SHRUG02_noisy2.trc
DataRate	CameraRate	NumFrames	NumMarkers	Units	OrigDataRate	OrigDataStartFrame	OrigNumFrames
112.250000	112.250000	42	9	m	112.250000	1	450
Frame#	Time		gu		centelbow		EpL		centpxt8		centijc7		ij		ts		aa		ai
			X1	Y1	Z1	X2	Y2	Z2	X3	Y3	Z3	X4	Y4	Z4	X5	Y5	Z5	X6	Y6	Z6	X7	Y7	Z7	X8	Y8	Z8	X9	Y9	Z9

1	0	-0.076267	-0.013602	0.16555	-0.10429	-0.25835	0.2024	-0.0825	-0.2535	0.22566	-0.046816	-0.15316	-0.008669	-0.046816	0.031938	-0.008669	0	0	0	-0.13839	0.028959	0.057016	-0.10448	0.024681	0.17128	-0.15951	-0.082316	0.064559
2	0.0089087	-0.076277	-0.013672	0.16555	-0.10414	-0.25851	0.20233	-0.082352	-0.25366	0.22559	-0.046816	-0.15316	-0.008669	-0.046816	0.031938	-0.008669	0	0	0	-0.13844	0.028829	0.057019	-0.10452	0.024537	0.17128	-0.15954	-0.082453	0.064543
3	0.017817	-0.076288	-0.013738	0.16556	-0.104	-0.25867	0.20226	-0.082205	-0.25382	0.22552	-0.046816	-0.15316	-0.008669	-0.046816	0.031938	-0.008669	0	0	0	-0.1385	0.028702	0.057021	-0.10456	0.024398	0.17128	-0.15956	-0.082588	0.064528
4	0.026726	-0.0763	-0.0138	0.16556	-0.10385	-0.25883	0.2022	-0.082059	-0.25398	0.22546	-0.046816	-0.15316	-0.008669	-0.046816	0.031938	-0.008669	0	0	0	-0.13855	0.028579	0.057023	-0.1046	0.024265	0.17128	-0.15959	-0.082719	0.064514
5	0.035635	-0.076313	-0.013857	0.16556	-0.10371	-0.25898	0.20213	-0.081914	-0.25413	0.22539	-0.046816	-0.15316	-0.008669	-0.046816	0.031938	-0.008669	0	0	0	-0.1386	0.028458	0.057024	-0.10463	0.024137	0.17127	-0.15961	-0.082848	0.0645
6	0.044543	-0.076326	-0.01391	0.16557	-0.10357	-0.25912	0.20206	-0.08177	-0.25427	0.22532	-0.046816	-0.15316	-0.008669	-0.046816	0.031938	-0.008669	0	0	0	-0.13865	0.028341	0.057025	-0.10467	0.024014	0.17127	-0.15963	-0.082974	0.064487
7	0.053452	-0.07634	-0.013958	0.16557	-0.10342	-0.25926	0.202	-0.081626	-0.25441	0.22526	-0.046816	-0.15316	-0.008669	-0.046816	0.031938	-0.008669	0	0	0	-0.1387	0.028227	0.057025	-0.10471	0.023896	0.17127	-0.15966	-0.083096	0.064475
8	0.062361	-0.076354	-0.014003	0.16557	-0.10328	-0.2594	0.20193	-0.081484	-0.25455	0.22519	-0.046816	-0.15316	-0.008669	-0.046816	0.031938	-0.008669	0	0	0	-0.13875	0.028117	0.057025	-0.10474	0.023783	0.17127	-0.15968	-0.083215	0.064463
9	0.071269	-0.07637	-0.014043	0.16558	-0.10314	-0.25953	0.20186	-0.081343	-0.25468	0.22512	-0.046816	-0.15316	-0.008669	-0.046816	0.031938	-0.008669	0	0	0	-0.13879	0.02801	0.057024	-0.10477	0.023676	0.17126	-0.1597	-0.08333	0.064451
10	0.080178	-0.076386	-0.01408	0.16558	-0.103	-0.25966	0.2018	-0.081203	-0.25481	0.22506	-0.046816	-0.15316	-0.008669	-0.046816	0.031938	-0.008669	0	0	0	-0.13884	0.027907	0.057023	-0.10481	0.023574	0.17126	-0.15972	-0.083442	0.064441
11	0.089087	-0.076402	-0.014113	0.16559	-0.10286	-0.25978	0.20173	-0.081065	-0.25493	0.22499	-0.046816	-0.15316	-0.008669	-0.046816	0.031938	-0.008669	0	0	0	-0.13888	0.027807	0.057021	-0.10484	0.023477	0.17126	-0.15974	-0.08355	0.06443
12	0.097996	-0.076419	-0.014141	0.16559	-0.10272	-0.2599	0.20167	-0.080928	-0.25505	0.22493	-0.046816	-0.15316	-0.008669	-0.046816	0.031938	-0.008669	0	0	0	-0.13893	0.027712	0.057019	-0.10487	0.023386	0.17125	-0.15976	-0.083653	0.06442
13	0.1069	-0.076437	-0.014167	0.16559	-0.10259	-0.26001	0.2016	-0.080792	-0.25516	0.22487	-0.046816	-0.15316	-0.008669	-0.046816	0.031938	-0.008669	0	0	0	-0.13897	0.02762	0.057016	-0.1049	0.0233	0.17125	-0.15977	-0.083753	0.064411
14	0.11581	-0.076455	-0.014188	0.1656	-0.10245	-0.26012	0.20154	-0.080658	-0.25527	0.2248	-0.046816	-0.15316	-0.008669	-0.046816	0.031938	-0.008669	0	0	0	-0.13901	0.027533	0.057013	-0.10493	0.023219	0.17125	-0.15979	-0.083849	0.064402
15	0.12472	-0.076474	-0.014206	0.1656	-0.10232	-0.26023	0.20147	-0.080526	-0.25537	0.22474	-0.046816	-0.15316	-0.008669	-0.046816	0.031938	-0.008669	0	0	0	-0.13904	0.02745	0.057009	-0.10496	0.023144	0.17124	-0.15981	-0.08394	0.064394
16	0.13363	-0.076493	-0.014221	0.1656	-0.10219	-0.26033	0.20141	-0.080395	-0.25547	0.22468	-0.046816	-0.15316	-0.008669	-0.046816	0.031938	-0.008669	0	0	0	-0.13908	0.027371	0.057005	-0.10499	0.023074	0.17124	-0.15982	-0.084027	0.064386
17	0.14254	-0.076513	-0.014232	0.16561	-0.10206	-0.26043	0.20135	-0.080266	-0.25557	0.22461	-0.046816	-0.15316	-0.008669	-0.046816	0.031938	-0.008669	0	0	0	-0.13912	0.027296	0.057001	-0.10501	0.023009	0.17124	-0.15983	-0.08411	0.064378
18	0.15145	-0.076533	-0.014239	0.16561	-0.10193	-0.26052	0.20128	-0.080139	-0.25566	0.22455	-0.046816	-0.15316	-0.008669	-0.046816	0.031938	-0.008669	0	0	0	-0.13915	0.027226	0.056996	-0.10504	0.02295	0.17123	-0.15985	-0.084187	0.064371
19	0.16036	-0.076554	-0.014244	0.16561	-0.1018	-0.26061	0.20122	-0.080014	-0.25575	0.22449	-0.046816	-0.15316	-0.008669	-0.046816	0.031938	-0.008669	0	0	0	-0.13918	0.027161	0.056991	-0.10507	0.022896	0.17123	-0.15986	-0.08426	0.064365
20	0.16927	-0.076575	-0.014245	0.16562	-0.10168	-0.26069	0.20116	-0.079891	-0.25583	0.22443	-0.046816	-0.15316	-0.008669	-0.046816	0.031938	-0.008669	0	0	0	-0.13921	0.0271	0.056985	-0.10509	0.022848	0.17122	-0.15987	-0.084328	0.064358
21	0.17817	-0.076597	-0.014243	0.16562	-0.10155	-0.26077	0.20109	-0.079769	-0.25591	0.22437	-0.046816	-0.15316	-0.008669	-0.046816	0.031938	-0.008669	0	0	0	-0.13924	0.027045	0.056979	-0.10511	0.022805	0.17122	-0.15988	-0.084391	0.064352
22	0.18708	-0.076619	-0.014239	0.16563	-0.10143	-0.26085	0.20103	-0.07965	-0.25598	0.22431	-0.046816	-0.15316	-0.008669	-0.046816	0.031938	-0.008669	0	0	0	-0.13926	0.026994	0.056973	-0.10513	0.022767	0.17121	-0.15989	-0.084448	0.064347
23	0.19599	-0.076641	-0.014231	0.16563	-0.10131	-0.26092	0.20097	-0.079533	-0.25605	0.22425	-0.046816	-0.15316	-0.008669	-0.046816	0.031938	-0.008669	0	0	0	-0.13929	0.026948	0.056967	-0.10515	0.022735	0.17121	-0.1599	-0.0845	0.064342
24	0.2049	-0.076664	-0.01422	0.16563	-0.1012	-0.26099	0.20091	-0.079419	-0.25612	0.22419	-0.046816	-0.15316	-0.008669	-0.046816	0.031938	-0.008669	0	0	0	-0.13931	0.026907	0.05696	-0.10517	0.022709	0.1712	-0.15991	-0.084547	0.064337
25	0.21381	-0.076687	-0.014207	0.16564	-0.10108	-0.26106	0.20084	-0.079306	-0.25619	0.22413	-0.046816	-0.15316	-0.008669	-0.046816	0.031938	-0.008669	0	0	0	-0.13933	0.026872	0.056953	-0.10519	0.022688	0.1712	-0.15992	-0.084588	0.064332
26	0.22272	-0.076711	-0.014191	0.16564	-0.10097	-0.26112	0.20078	-0.079196	-0.25624	0.22407	-0.046816	-0.15316	-0.008669	-0.046816	0.031938	-0.008669	0	0	0	-0.13935	0.026842	0.056946	-0.10521	0.022672	0.17119	-0.15993	-0.084624	0.064328
27	0.23163	-0.076734	-0.014173	0.16564	-0.10086	-0.26117	0.20072	-0.079089	-0.2563	0.22401	-0.046816	-0.15316	-0.008669	-0.046816	0.031938	-0.008669	0	0	0	-0.13937	0.026817	0.056938	-0.10523	0.022662	0.17119	-0.15993	-0.084653	0.064324
28	0.24053	-0.076758	-0.014151	0.16565	-0.10075	-0.26123	0.20066	-0.078984	-0.25635	0.22395	-0.046816	-0.15316	-0.008669	-0.046816	0.031938	-0.008669	0	0	0	-0.13938	0.026798	0.056931	-0.10524	0.022657	0.17118	-0.15994	-0.084676	0.064321
29	0.24944	-0.076783	-0.014128	0.16565	-0.10064	-0.26128	0.2006	-0.078882	-0.2564	0.22389	-0.046816	-0.15316	-0.008669	-0.046816	0.031938	-0.008669	0	0	0	-0.13939	0.026785	0.056923	-0.10526	0.022658	0.17118	-0.15994	-0.084694	0.064317
30	0.25835	-0.076807	-0.014102	0.16566	-0.10054	-0.26132	0.20054	-0.078782	-0.25644	0.22383	-0.046816	-0.15316	-0.008669	-0.046816	0.031938	-0.008669	0	0	0	-0.1394	0.026777	0.056915	-0.10527	0.022665	0.17117	-0.15995	-0.084705	0.064314
31	0.26726	-0.076832	-0.014074	0.16566	-0.10044	-0.26137	0.20047	-0.078685	-0.25649	0.22377	-0.046816	-0.15316	-0.008669	-0.046816	0.031938	-0.008669	0	0	0	-0.13941	0.026776	0.056906	-0.10528	0.022677	0.17117	-0.15995	-0.084709	0.064311
32	0.27617	-0.076857	-0.014043	0.16566	-0.10034	-0.26141	0.20041	-0.078591	-0.25652	0.22371	-0.046816	-0.15316	-0.008669	-0.046816	0.031938	-0.008669	0	0	0	-0.13942	0.02678	0.056898	-0.10529	0.022695	0.17116	-0.15995	-0.084708	0.064308
33	0.28508	-0.076882	-0.014011	0.16567	-0.10025	-0.26144	0.20035	-0.0785	-0.25656	0.22365	-0.046816	-0.15316	-0.008669	-0.046816	0.031938	-0.008669	0	0	0	-0.13942	0.02679	0.056889	-0.1053	0.022718	0.17116	-0.15995	-0.084699	0.064306
34	0.29399	-0.076907	-0.013976	0.16567	-0.10016	-0.26147	0.20029	-0.078412	-0.25659	0.22359	-0.046816	-0.15316	-0.008669	-0.046816	0.031938	-0.008669	0	0	0	-0.13942	0.026807	0.056881	-0.10531	0.022747	0.17115	-0.15995	-0.084684	0.064304
35	0.3029	-0.076932	-0.013939	0.16568	-0.10007	-0.2615	0.20023	-0.078327	-0.25661	0.22354	-0.046816	-0.15316	-0.008669	-0.046816	0.031938	-0.008669	0	0	0	-0.13942	0.02683	0.056872	-0.10532	0.022782	0.17115	-0.15995	-0.084661	0.064302
36	0.3118	-0.076958	-0.013901	0.16568	-0.099983	-0.26153	0.20017	-0.078245	-0.25664	0.22348	-0.046816	-0.15316	-0.008669	-0.046816	0.031938	-0.008669	0	0	0	-0.13942	0.026859	0.056863	-0.10532	0.022822	0.17114	-0.15995	-0.084632	0.0643
37	0.32071	-0.076983	-0.01386	0.16568	-0.0999	-0.26155	0.20011	-0.078166	-0.25666	0.22342	-0.046816	-0.15316	-0.008669	-0.046816	0.031938	-0.008669	0	0	0	-0.13941	0.026895	0.056854	-0.10533	0.022868	0.17114	-0.15995	-0.084596	0.064298
38	0.32962	-0.077009	-0.013818	0.16569	-0.099821	-0.26157	0.20005	-0.078091	-0.25668	0.22336	-0.046816	-0.15316	-0.008669	-0.046816	0.031938	-0.008669	0	0	0	-0.13941	0.026937	0.056845	-0.10533	0.02292	0.17113	-0.15995	-0.084552	0.064296
39	0.33853	-0.077034	-0.013774	0.16569	-0.099745	-0.26158	0.19999	-0.078019	-0.25669	0.2233	-0.046816	-0.15316	-0.008669	-0.046816	0.031938	-0.008669	0	0	0	-0.1394	0.026986	0.056836	-0.10533	0.022977	0.17112	-0.15995	-0.084501	0.064294
40	0.34744	-0.07706	-0.013729	0.16569	-0.099673	-0.2616	0.19993	-0.07795	-0.2567	0.22325	-0.046816	-0.15316	-0.008669	-0.046816	0.031938	-0.008669	0	0	0	-0.13938	0.027042	0.056826	-0.10533	0.02304	0.17112	-0.15994	-0.084442	0.064293
41	0.35635	-0.077086	-0.013682	0.1657	-0.099603	-0.2616	0.19987	-0.077885	-0.25671	0.22319	-0.046816	-0.15316	-0.008669	-0.046816	0.031938	-0.008669	0	0	0	-0.13937	0.027105	0.056817	-0.10533	0.023109	0.17111	-0.15994	-0.084375	0.064292
42	0.36526	-0.077112	-0.013634	0.1657	-0.099538	-0.26161	0.19981	-0.077823	-0.25671	0.22313	-0.046816	-0.15316	-0.008669	-0.046816	0.031938	-0.008669	0	0	0	-0.13935	0.027174	0.056808	-0.10533	0.023183	0.17111	-0.15993	-0.084301	0.06429
